<svg xmlns="http://www.w3.org/2000/svg" viewBox="0 0 256 256">
  <rect width="256" height="256" rx="32" fill="#1e1e2e"/>
  <defs>
    <filter id="a" x="-20%" y="-20%" width="140%" height="140%">
      <feGaussianBlur in="SourceGraphic" stdDeviation="2" result="blur"/>
      <feComposite in="SourceGraphic" in2="blur"/>
    </filter>
  </defs>
  <g filter="url(#a)">
    <path stroke="#94e2d5" stroke-width="8" stroke-linecap="round" d="m25 118 30 4m-30 16 30-4"/>
    <path d="m65 128 10-60 25 40q10-5 20 0l25-40 10 60a45 45 0 0 1-90 0" fill="none" stroke="#cba6f7" stroke-width="12" stroke-linecap="round" stroke-linejoin="round"/>
    <path d="M85 125q7.5-10 15 0m20 0q7.5-10 15 0" fill="none" stroke="#89b4fa" stroke-width="8" stroke-linecap="round"/>
    <path fill="#f5c2e7" d="M105 138h10l-5 8z"/>
    <path d="M95 142q7.5 10 15 4 7.5 6 15-4" fill="none" stroke="#f5c2e7" stroke-width="6" stroke-linecap="round"/>
    <path d="m175 103 25 25-25 25" fill="none" stroke="#a6e3a1" stroke-width="16" stroke-linecap="round" stroke-linejoin="round"/>
    <path stroke="#f9e2af" stroke-width="12" stroke-linecap="round" d="M215 153h20"/>
  </g>
</svg>
