<?xml version="1.0" encoding="UTF-8" standalone="no"?>
<svg
   viewBox="0 0 256 256"
   version="1.1"
   id="svg7"
   sodipodi:docname="purrprompt.svg"
   inkscape:version="1.4.2 (f4327f4, 2025-05-13)"
   xmlns:inkscape="http://www.inkscape.org/namespaces/inkscape"
   xmlns:sodipodi="http://sodipodi.sourceforge.net/DTD/sodipodi-0.dtd"
   xmlns="http://www.w3.org/2000/svg"
   xmlns:svg="http://www.w3.org/2000/svg">
  <sodipodi:namedview
     id="namedview7"
     pagecolor="#505050"
     bordercolor="#eeeeee"
     borderopacity="1"
     inkscape:showpageshadow="0"
     inkscape:pageopacity="0"
     inkscape:pagecheckerboard="0"
     inkscape:deskcolor="#505050"
     inkscape:zoom="0.8359375"
     inkscape:cx="20.336449"
     inkscape:cy="222.50467"
     inkscape:window-width="1920"
     inkscape:window-height="1058"
     inkscape:window-x="-6"
     inkscape:window-y="-6"
     inkscape:window-maximized="1"
     inkscape:current-layer="svg7" />
  <rect
     width="256"
     height="256"
     rx="32"
     fill="#1e1e2e"
     id="rect1" />
  <defs
     id="defs1">
    <filter
       id="a"
       x="-0.0410831"
       y="-0.10284703"
       width="1.0915033"
       height="1.205704">
      <feGaussianBlur
         in="SourceGraphic"
         stdDeviation="2"
         result="blur"
         id="feGaussianBlur1" />
      <feComposite
         in="SourceGraphic"
         in2="blur"
         id="feComposite1" />
    </filter>
  </defs>
  <g
     filter="url(#a)"
     id="g7"
     transform="translate(-5.1199904,7.4994798)">
    <path
       stroke="#94e2d5"
       stroke-width="8"
       stroke-linecap="round"
       d="m 25,118 30,4 m -30,16 30,-4"
       id="path1" />
    <path
       d="m 68.5,128 10,-60 25,40 q 10,-5 20,0 l 25,-40 10,60 a 45,45 0 0 1 -90,0"
       fill="none"
       stroke="#cba6f7"
       stroke-width="12"
       stroke-linecap="round"
       stroke-linejoin="round"
       id="path2" />
    <path
       d="m 88.5,129 q 7.5,-10 15,0 m 20,0 q 7.5,-10 15,0"
       fill="none"
       stroke="#89b4fa"
       stroke-width="8"
       stroke-linecap="round"
       id="path3" />
    <path
       fill="#f5c2e7"
       d="m 108.5,138 h 10 l -5,8 z"
       id="path4" />
    <path
       d="m 98.5,142 q 7.5,10 15,4 7.5,6 15,-4"
       fill="none"
       stroke="#f5c2e7"
       stroke-width="6"
       stroke-linecap="round"
       id="path5" />
    <path
       d="m 178,103 25,25 -25,25"
       fill="none"
       stroke="#a6e3a1"
       stroke-width="16"
       stroke-linecap="round"
       stroke-linejoin="round"
       id="path6" />
    <path
       stroke="#f9e2af"
       stroke-width="12"
       stroke-linecap="round"
       d="m 219.2,153 h 20"
       id="path7" />
  </g>
</svg>
